Coordinates
nRows=7
nColumns=24

# SIMM Motion File Header:
name Coordinates
datacolumns 24
datarows 7
otherdata 1
range 0.68000000000000005000 0.68600000000000005000
endheader
time	pelvis_tx	pelvis_ty	pelvis_tz	pelvis_tilt	pelvis_list	pelvis_rotation	hip_flexion_r	hip_adduction_r	hip_rotation_r	knee_angle_r	ankle_angle_r	subtalar_angle_r	mtp_angle_r	hip_flexion_l	hip_adduction_l	hip_rotation_l	knee_angle_l	ankle_angle_l	subtalar_angle_l	mtp_angle_l	lumbar_extension	lumbar_bending	lumbar_rotation
      0.68000000000000005000	     -0.81628597015658255000	      0.93665031019950651000	     -0.24503231850727786000	     20.45068836935198700000	      2.92836637295910810000	     -3.26355364667698390000	      0.32044748500556453000	     -6.20034661219548950000	      0.94905911036750001000	    -61.22043370493020100000	      4.89993635622912650000	     -0.00000000000005376512	     -0.00000000000003626034	    -18.36055723637672800000	      6.73409759079789620000	      6.08472561977129530000	    -10.93814311472553100000	      5.56844619411539550000	     -0.00000000000003437723	      0.00000000000008511831	    -30.39611702290816800000	     -4.47285728247511120000	      0.99998195190615002000
      0.68100000000000005000	     -0.81473302096382738000	      0.93653069041348236000	     -0.24524095036521099000	     20.47304705109185400000	      2.88858092660853800000	     -3.17631304297081660000	      0.39290285197218733000	     -6.13785539306639900000	      0.85721964066948908000	    -61.00333735407267700000	      4.97765188084016150000	     -0.00000000000005432430	     -0.00000000000003672177	    -18.59615422347829000000	      6.66682096559781010000	      6.15001115252861560000	    -10.75066413493401300000	      5.55330313984292090000	     -0.00000000000003465799	      0.00000000000008588501	    -30.42538495531810800000	     -4.38915420509720280000	      0.92996181020820268000
      0.68200000000000005000	     -0.81318050402636610000	      0.93640660798338460000	     -0.24544954139773764000	     20.49551691082763200000	      2.84906614901276530000	     -3.08876233340294660000	      0.46359584369879059000	     -6.07591230703869560000	      0.76477474319963845000	    -60.78220811370678700000	      5.05324423017173620000	     -0.00000000000005489109	     -0.00000000000003715295	    -18.83189741105879400000	      6.59892804243290690000	      6.21424784817655600000	    -10.56248384912752900000	      5.53772225355243460000	     -0.00000000000003493032	      0.00000000000008662037	    -30.45466490763732300000	     -4.30556394958400990000	      0.85988558072555521000
      0.68300000000000005000	     -0.81162798708890482000	      0.93628252555328695000	     -0.24565813243026433000	     20.51798677056341100000	      2.80955137141699350000	     -3.00121162383507660000	      0.53428883542539196000	     -6.01396922101099300000	      0.67232984572978738000	    -60.56107887334089000000	      5.12883657950330730000	     -0.00000000000005545788	     -0.00000000000003758412	    -19.06764059863929400000	      6.53103511926800450000	      6.27848454382449360000	    -10.37430356332104600000	      5.52214136726194480000	     -0.00000000000003520265	      0.00000000000008735573	    -30.48394485995653700000	     -4.22197369407081700000	      0.78980935124290785000
      0.68400000000000005000	     -0.81007632395228524000	      0.93615005572094945000	     -0.24586638492023347000	     20.54047568559886000000	      2.77081545872392090000	     -2.91340970732437300000	      0.60217156638278202000	     -5.95333794129567990000	      0.57917880130126331000	    -60.33282752304030800000	      5.19909334084604600000	     -0.00000000000005604334	     -0.00000000000003792038	    -19.30345757401979200000	      6.46239492060126870000	      6.34044306678195020000	    -10.18458216262914300000	      5.50066424668967620000	     -0.00000000000003547272	      0.00000000000008805720	    -30.51303867949575700000	     -4.13900003563439260000	      0.71975172744070570000
      0.68500000000000005000	     -0.80852466081566576000	      0.93601758588861184000	     -0.24607463741020261000	     20.56296460063430600000	      2.73207954603084820000	     -2.82560779081366900000	      0.67005429734017197000	     -5.89270666158036690000	      0.48602775687273925000	    -60.10457617273972600000	      5.26935010218878470000	     -0.00000000000005662881	     -0.00000000000003825664	    -19.53927454940029000000	      6.39375472193453390000	      6.40240158973940690000	     -9.99486076193724140000	      5.47918712611740850000	     -0.00000000000003574279	      0.00000000000008875867	    -30.54213249903497700000	     -4.05602637719796720000	      0.64969410363850355000
      0.68600000000000005000	     -0.80697394873730066000	      0.93587605028292009000	     -0.24628251952061175000	     20.58512815061946100000	      2.69441212626405590000	     -2.73772460831202120000	      0.73564556516125434000	     -5.83371614000641080000	      0.39242991939927091000	    -59.86935872486192500000	      5.33280018452866680000	     -0.00000000000005721523	     -0.00000000000003857747	    -19.77465059097378500000	      6.32474289863247920000	      6.46203800935979620000	     -9.80381053959464490000	      5.45024605138048110000	     -0.00000000000003601289	      0.00000000000008945722	    -30.57067384806160600000	     -3.97401231876138580000	      0.57965936038801191000
